<mxfile host="app.diagrams.net" modified="2020-06-18T03:25:56.778Z" agent="5.0 (Windows NT 10.0; Win64; x64) AppleWebKit/537.36 (KHTML, like Gecko) Chrome/83.0.4103.97 Safari/537.36" etag="Hm0qdpxLrTdVt-f2R-qY" version="13.2.6" type="github">
  <diagram id="GmI4eg5Vj9IhphaG-CfB" name="Page-1">
    <mxGraphModel dx="1422" dy="745" grid="1" gridSize="10" guides="1" tooltips="1" connect="1" arrows="1" fold="1" page="1" pageScale="1" pageWidth="827" pageHeight="1169" math="0" shadow="0">
      <root>
        <mxCell id="0" />
        <mxCell id="1" parent="0" />
        <mxCell id="dw9jjnBZyIxeGPxxYRrR-5" value="Controller" style="shape=umlLifeline;perimeter=lifelinePerimeter;whiteSpace=wrap;html=1;container=1;collapsible=0;recursiveResize=0;outlineConnect=0;" parent="1" vertex="1">
          <mxGeometry x="124" y="80" width="100" height="800" as="geometry" />
        </mxCell>
        <mxCell id="dw9jjnBZyIxeGPxxYRrR-8" value="" style="html=1;points=[];perimeter=orthogonalPerimeter;" parent="dw9jjnBZyIxeGPxxYRrR-5" vertex="1">
          <mxGeometry x="45" y="70" width="10" height="200" as="geometry" />
        </mxCell>
        <mxCell id="AzmRYx8aAY5YrTBjNprB-40" value="" style="html=1;points=[];perimeter=orthogonalPerimeter;" vertex="1" parent="dw9jjnBZyIxeGPxxYRrR-5">
          <mxGeometry x="45" y="546" width="10" height="97" as="geometry" />
        </mxCell>
        <mxCell id="dw9jjnBZyIxeGPxxYRrR-6" value="Service" style="shape=umlLifeline;perimeter=lifelinePerimeter;whiteSpace=wrap;html=1;container=1;collapsible=0;recursiveResize=0;outlineConnect=0;" parent="1" vertex="1">
          <mxGeometry x="364" y="80" width="100" height="800" as="geometry" />
        </mxCell>
        <mxCell id="AzmRYx8aAY5YrTBjNprB-2" value="" style="html=1;points=[];perimeter=orthogonalPerimeter;" vertex="1" parent="dw9jjnBZyIxeGPxxYRrR-6">
          <mxGeometry x="45" y="70" width="10" height="40" as="geometry" />
        </mxCell>
        <mxCell id="dw9jjnBZyIxeGPxxYRrR-7" value="Dao" style="shape=umlLifeline;perimeter=lifelinePerimeter;whiteSpace=wrap;html=1;container=1;collapsible=0;recursiveResize=0;outlineConnect=0;" parent="1" vertex="1">
          <mxGeometry x="604" y="80" width="100" height="800" as="geometry" />
        </mxCell>
        <mxCell id="AzmRYx8aAY5YrTBjNprB-4" value="" style="html=1;points=[];perimeter=orthogonalPerimeter;" vertex="1" parent="dw9jjnBZyIxeGPxxYRrR-7">
          <mxGeometry x="45" y="70" width="10" height="40" as="geometry" />
        </mxCell>
        <mxCell id="dw9jjnBZyIxeGPxxYRrR-9" value="getDoListWaitApproveCnt()" style="html=1;verticalAlign=bottom;endArrow=block;" parent="1" edge="1">
          <mxGeometry x="-0.0578" width="80" relative="1" as="geometry">
            <mxPoint x="180" y="160" as="sourcePoint" />
            <mxPoint x="410" y="160" as="targetPoint" />
            <mxPoint as="offset" />
          </mxGeometry>
        </mxCell>
        <mxCell id="AzmRYx8aAY5YrTBjNprB-3" value="selectWaitApproveCntAll()" style="html=1;verticalAlign=bottom;endArrow=block;" edge="1" parent="1">
          <mxGeometry x="-0.0578" width="80" relative="1" as="geometry">
            <mxPoint x="420" y="160" as="sourcePoint" />
            <mxPoint x="650" y="160" as="targetPoint" />
            <mxPoint as="offset" />
          </mxGeometry>
        </mxCell>
        <mxCell id="AzmRYx8aAY5YrTBjNprB-5" value="int" style="html=1;verticalAlign=bottom;endArrow=block;" edge="1" parent="1">
          <mxGeometry x="0.0435" width="80" relative="1" as="geometry">
            <mxPoint x="648" y="180" as="sourcePoint" />
            <mxPoint x="418" y="180" as="targetPoint" />
            <mxPoint as="offset" />
          </mxGeometry>
        </mxCell>
        <mxCell id="AzmRYx8aAY5YrTBjNprB-6" value="int" style="html=1;verticalAlign=bottom;endArrow=block;" edge="1" parent="1">
          <mxGeometry x="0.0435" width="80" relative="1" as="geometry">
            <mxPoint x="408" y="180" as="sourcePoint" />
            <mxPoint x="178" y="180" as="targetPoint" />
            <mxPoint as="offset" />
          </mxGeometry>
        </mxCell>
        <mxCell id="AzmRYx8aAY5YrTBjNprB-7" value="" style="html=1;points=[];perimeter=orthogonalPerimeter;" vertex="1" parent="1">
          <mxGeometry x="409" y="202" width="10" height="40" as="geometry" />
        </mxCell>
        <mxCell id="AzmRYx8aAY5YrTBjNprB-8" value="" style="html=1;points=[];perimeter=orthogonalPerimeter;" vertex="1" parent="1">
          <mxGeometry x="649" y="202" width="10" height="40" as="geometry" />
        </mxCell>
        <mxCell id="AzmRYx8aAY5YrTBjNprB-9" value="getDoListProgressCnt()" style="html=1;verticalAlign=bottom;endArrow=block;" edge="1" parent="1">
          <mxGeometry x="-0.0578" width="80" relative="1" as="geometry">
            <mxPoint x="180" y="212" as="sourcePoint" />
            <mxPoint x="410" y="212" as="targetPoint" />
            <mxPoint as="offset" />
          </mxGeometry>
        </mxCell>
        <mxCell id="AzmRYx8aAY5YrTBjNprB-10" value="selectProgressCntAll()" style="html=1;verticalAlign=bottom;endArrow=block;" edge="1" parent="1">
          <mxGeometry x="-0.0578" width="80" relative="1" as="geometry">
            <mxPoint x="420" y="212" as="sourcePoint" />
            <mxPoint x="650" y="212" as="targetPoint" />
            <mxPoint as="offset" />
          </mxGeometry>
        </mxCell>
        <mxCell id="AzmRYx8aAY5YrTBjNprB-11" value="int" style="html=1;verticalAlign=bottom;endArrow=block;" edge="1" parent="1">
          <mxGeometry x="0.0435" width="80" relative="1" as="geometry">
            <mxPoint x="648" y="232" as="sourcePoint" />
            <mxPoint x="418" y="232" as="targetPoint" />
            <mxPoint as="offset" />
          </mxGeometry>
        </mxCell>
        <mxCell id="AzmRYx8aAY5YrTBjNprB-12" value="int" style="html=1;verticalAlign=bottom;endArrow=block;" edge="1" parent="1">
          <mxGeometry x="0.0435" width="80" relative="1" as="geometry">
            <mxPoint x="408" y="232" as="sourcePoint" />
            <mxPoint x="178" y="232" as="targetPoint" />
            <mxPoint as="offset" />
          </mxGeometry>
        </mxCell>
        <mxCell id="AzmRYx8aAY5YrTBjNprB-25" value="" style="html=1;points=[];perimeter=orthogonalPerimeter;" vertex="1" parent="1">
          <mxGeometry x="409" y="255" width="10" height="40" as="geometry" />
        </mxCell>
        <mxCell id="AzmRYx8aAY5YrTBjNprB-26" value="" style="html=1;points=[];perimeter=orthogonalPerimeter;" vertex="1" parent="1">
          <mxGeometry x="649" y="255" width="10" height="40" as="geometry" />
        </mxCell>
        <mxCell id="AzmRYx8aAY5YrTBjNprB-27" value="getDoListWaitApprove()" style="html=1;verticalAlign=bottom;endArrow=block;" edge="1" parent="1">
          <mxGeometry x="-0.0578" width="80" relative="1" as="geometry">
            <mxPoint x="180" y="265" as="sourcePoint" />
            <mxPoint x="410" y="265" as="targetPoint" />
            <mxPoint as="offset" />
          </mxGeometry>
        </mxCell>
        <mxCell id="AzmRYx8aAY5YrTBjNprB-28" value="selectDoListWaitApprove()" style="html=1;verticalAlign=bottom;endArrow=block;" edge="1" parent="1">
          <mxGeometry x="-0.0578" width="80" relative="1" as="geometry">
            <mxPoint x="420" y="265" as="sourcePoint" />
            <mxPoint x="650" y="265" as="targetPoint" />
            <mxPoint as="offset" />
          </mxGeometry>
        </mxCell>
        <mxCell id="AzmRYx8aAY5YrTBjNprB-30" value="List&amp;lt;Document&amp;gt;" style="html=1;verticalAlign=bottom;endArrow=block;" edge="1" parent="1">
          <mxGeometry x="0.0261" width="80" relative="1" as="geometry">
            <mxPoint x="408" y="287" as="sourcePoint" />
            <mxPoint x="178" y="287" as="targetPoint" />
            <mxPoint as="offset" />
          </mxGeometry>
        </mxCell>
        <mxCell id="AzmRYx8aAY5YrTBjNprB-31" value="" style="html=1;points=[];perimeter=orthogonalPerimeter;" vertex="1" parent="1">
          <mxGeometry x="409" y="308" width="10" height="40" as="geometry" />
        </mxCell>
        <mxCell id="AzmRYx8aAY5YrTBjNprB-32" value="" style="html=1;points=[];perimeter=orthogonalPerimeter;" vertex="1" parent="1">
          <mxGeometry x="649" y="308" width="10" height="40" as="geometry" />
        </mxCell>
        <mxCell id="AzmRYx8aAY5YrTBjNprB-33" value="getDoListProgress()" style="html=1;verticalAlign=bottom;endArrow=block;" edge="1" parent="1">
          <mxGeometry x="-0.0578" width="80" relative="1" as="geometry">
            <mxPoint x="180" y="318" as="sourcePoint" />
            <mxPoint x="410" y="318" as="targetPoint" />
            <mxPoint as="offset" />
          </mxGeometry>
        </mxCell>
        <mxCell id="AzmRYx8aAY5YrTBjNprB-34" value="selectDoListProgress()" style="html=1;verticalAlign=bottom;endArrow=block;" edge="1" parent="1">
          <mxGeometry x="-0.0578" width="80" relative="1" as="geometry">
            <mxPoint x="420" y="318" as="sourcePoint" />
            <mxPoint x="650" y="318" as="targetPoint" />
            <mxPoint as="offset" />
          </mxGeometry>
        </mxCell>
        <mxCell id="AzmRYx8aAY5YrTBjNprB-37" value="List&amp;lt;Document&amp;gt;" style="html=1;verticalAlign=bottom;endArrow=block;" edge="1" parent="1">
          <mxGeometry x="0.0261" width="80" relative="1" as="geometry">
            <mxPoint x="649" y="286" as="sourcePoint" />
            <mxPoint x="419" y="286" as="targetPoint" />
            <mxPoint as="offset" />
          </mxGeometry>
        </mxCell>
        <mxCell id="AzmRYx8aAY5YrTBjNprB-38" value="List&amp;lt;Document&amp;gt;" style="html=1;verticalAlign=bottom;endArrow=block;" edge="1" parent="1">
          <mxGeometry x="0.0261" width="80" relative="1" as="geometry">
            <mxPoint x="649" y="341" as="sourcePoint" />
            <mxPoint x="419" y="341" as="targetPoint" />
            <mxPoint as="offset" />
          </mxGeometry>
        </mxCell>
        <mxCell id="AzmRYx8aAY5YrTBjNprB-39" value="List&amp;lt;Document&amp;gt;" style="html=1;verticalAlign=bottom;endArrow=block;" edge="1" parent="1">
          <mxGeometry x="0.0261" width="80" relative="1" as="geometry">
            <mxPoint x="409" y="340" as="sourcePoint" />
            <mxPoint x="179" y="340" as="targetPoint" />
            <mxPoint as="offset" />
          </mxGeometry>
        </mxCell>
        <mxCell id="AzmRYx8aAY5YrTBjNprB-41" value="" style="html=1;points=[];perimeter=orthogonalPerimeter;" vertex="1" parent="1">
          <mxGeometry x="409" y="628" width="10" height="95" as="geometry" />
        </mxCell>
        <mxCell id="AzmRYx8aAY5YrTBjNprB-42" value="" style="html=1;points=[];perimeter=orthogonalPerimeter;" vertex="1" parent="1">
          <mxGeometry x="649" y="628" width="10" height="40" as="geometry" />
        </mxCell>
        <mxCell id="AzmRYx8aAY5YrTBjNprB-43" value="getWaitApprovePaging(req)" style="html=1;verticalAlign=bottom;endArrow=block;" edge="1" parent="1">
          <mxGeometry x="-0.0578" width="80" relative="1" as="geometry">
            <mxPoint x="180" y="638" as="sourcePoint" />
            <mxPoint x="410" y="638" as="targetPoint" />
            <mxPoint as="offset" />
          </mxGeometry>
        </mxCell>
        <mxCell id="AzmRYx8aAY5YrTBjNprB-44" value="selectWaitApproveCntAll()" style="html=1;verticalAlign=bottom;endArrow=block;" edge="1" parent="1">
          <mxGeometry x="-0.0578" width="80" relative="1" as="geometry">
            <mxPoint x="420" y="638" as="sourcePoint" />
            <mxPoint x="650" y="638" as="targetPoint" />
            <mxPoint as="offset" />
          </mxGeometry>
        </mxCell>
        <mxCell id="AzmRYx8aAY5YrTBjNprB-45" value="int" style="html=1;verticalAlign=bottom;endArrow=block;" edge="1" parent="1">
          <mxGeometry x="0.0435" width="80" relative="1" as="geometry">
            <mxPoint x="648" y="658" as="sourcePoint" />
            <mxPoint x="418" y="658" as="targetPoint" />
            <mxPoint as="offset" />
          </mxGeometry>
        </mxCell>
        <mxCell id="AzmRYx8aAY5YrTBjNprB-48" value="" style="html=1;points=[];perimeter=orthogonalPerimeter;" vertex="1" parent="1">
          <mxGeometry x="649" y="683" width="10" height="40" as="geometry" />
        </mxCell>
        <mxCell id="AzmRYx8aAY5YrTBjNprB-49" value="selectWaitApproveSearch(search, paging)" style="html=1;verticalAlign=bottom;endArrow=block;" edge="1" parent="1">
          <mxGeometry x="-0.0578" width="80" relative="1" as="geometry">
            <mxPoint x="420" y="693" as="sourcePoint" />
            <mxPoint x="650" y="693" as="targetPoint" />
            <mxPoint as="offset" />
          </mxGeometry>
        </mxCell>
        <mxCell id="AzmRYx8aAY5YrTBjNprB-51" value="List&amp;lt;Document&amp;gt;" style="html=1;verticalAlign=bottom;endArrow=block;" edge="1" parent="1">
          <mxGeometry x="0.0261" width="80" relative="1" as="geometry">
            <mxPoint x="649" y="712" as="sourcePoint" />
            <mxPoint x="419" y="712" as="targetPoint" />
            <mxPoint as="offset" />
          </mxGeometry>
        </mxCell>
        <mxCell id="AzmRYx8aAY5YrTBjNprB-52" value="List&amp;lt;Document&amp;gt;" style="html=1;verticalAlign=bottom;endArrow=block;" edge="1" parent="1">
          <mxGeometry x="0.0261" width="80" relative="1" as="geometry">
            <mxPoint x="409" y="713" as="sourcePoint" />
            <mxPoint x="179" y="713" as="targetPoint" />
            <mxPoint as="offset" />
          </mxGeometry>
        </mxCell>
        <mxCell id="AzmRYx8aAY5YrTBjNprB-63" value="" style="html=1;points=[];perimeter=orthogonalPerimeter;" vertex="1" parent="1">
          <mxGeometry x="169" y="733" width="10" height="97" as="geometry" />
        </mxCell>
        <mxCell id="AzmRYx8aAY5YrTBjNprB-64" value="" style="html=1;points=[];perimeter=orthogonalPerimeter;" vertex="1" parent="1">
          <mxGeometry x="409" y="735" width="10" height="95" as="geometry" />
        </mxCell>
        <mxCell id="AzmRYx8aAY5YrTBjNprB-65" value="" style="html=1;points=[];perimeter=orthogonalPerimeter;" vertex="1" parent="1">
          <mxGeometry x="649" y="735" width="10" height="40" as="geometry" />
        </mxCell>
        <mxCell id="AzmRYx8aAY5YrTBjNprB-66" value="getWaitApprovePaging(req)" style="html=1;verticalAlign=bottom;endArrow=block;" edge="1" parent="1">
          <mxGeometry x="-0.0578" width="80" relative="1" as="geometry">
            <mxPoint x="180" y="745" as="sourcePoint" />
            <mxPoint x="410" y="745" as="targetPoint" />
            <mxPoint as="offset" />
          </mxGeometry>
        </mxCell>
        <mxCell id="AzmRYx8aAY5YrTBjNprB-67" value="selectWaitApproveCntAll()" style="html=1;verticalAlign=bottom;endArrow=block;" edge="1" parent="1">
          <mxGeometry x="-0.0578" width="80" relative="1" as="geometry">
            <mxPoint x="420" y="745" as="sourcePoint" />
            <mxPoint x="650" y="745" as="targetPoint" />
            <mxPoint as="offset" />
          </mxGeometry>
        </mxCell>
        <mxCell id="AzmRYx8aAY5YrTBjNprB-68" value="int" style="html=1;verticalAlign=bottom;endArrow=block;" edge="1" parent="1">
          <mxGeometry x="0.0435" width="80" relative="1" as="geometry">
            <mxPoint x="648" y="765" as="sourcePoint" />
            <mxPoint x="418" y="765" as="targetPoint" />
            <mxPoint as="offset" />
          </mxGeometry>
        </mxCell>
        <mxCell id="AzmRYx8aAY5YrTBjNprB-69" value="" style="html=1;points=[];perimeter=orthogonalPerimeter;" vertex="1" parent="1">
          <mxGeometry x="649" y="790" width="10" height="40" as="geometry" />
        </mxCell>
        <mxCell id="AzmRYx8aAY5YrTBjNprB-70" value="selectWaitApproveAll(paging)" style="html=1;verticalAlign=bottom;endArrow=block;" edge="1" parent="1">
          <mxGeometry x="-0.0578" width="80" relative="1" as="geometry">
            <mxPoint x="420" y="800" as="sourcePoint" />
            <mxPoint x="650" y="800" as="targetPoint" />
            <mxPoint as="offset" />
          </mxGeometry>
        </mxCell>
        <mxCell id="AzmRYx8aAY5YrTBjNprB-71" value="List&amp;lt;Document&amp;gt;" style="html=1;verticalAlign=bottom;endArrow=block;" edge="1" parent="1">
          <mxGeometry x="0.0261" width="80" relative="1" as="geometry">
            <mxPoint x="649" y="819" as="sourcePoint" />
            <mxPoint x="419" y="819" as="targetPoint" />
            <mxPoint as="offset" />
          </mxGeometry>
        </mxCell>
        <mxCell id="AzmRYx8aAY5YrTBjNprB-72" value="List&amp;lt;Document&amp;gt;" style="html=1;verticalAlign=bottom;endArrow=block;" edge="1" parent="1">
          <mxGeometry x="0.0261" width="80" relative="1" as="geometry">
            <mxPoint x="409" y="820" as="sourcePoint" />
            <mxPoint x="179" y="820" as="targetPoint" />
            <mxPoint as="offset" />
          </mxGeometry>
        </mxCell>
        <mxCell id="AzmRYx8aAY5YrTBjNprB-73" value="" style="html=1;points=[];perimeter=orthogonalPerimeter;" vertex="1" parent="1">
          <mxGeometry x="169" y="381" width="10" height="97" as="geometry" />
        </mxCell>
        <mxCell id="AzmRYx8aAY5YrTBjNprB-74" value="" style="html=1;points=[];perimeter=orthogonalPerimeter;" vertex="1" parent="1">
          <mxGeometry x="409" y="383" width="10" height="95" as="geometry" />
        </mxCell>
        <mxCell id="AzmRYx8aAY5YrTBjNprB-75" value="" style="html=1;points=[];perimeter=orthogonalPerimeter;" vertex="1" parent="1">
          <mxGeometry x="649" y="383" width="10" height="40" as="geometry" />
        </mxCell>
        <mxCell id="AzmRYx8aAY5YrTBjNprB-76" value="getTempPaging(req)" style="html=1;verticalAlign=bottom;endArrow=block;" edge="1" parent="1">
          <mxGeometry x="-0.0578" width="80" relative="1" as="geometry">
            <mxPoint x="180" y="393" as="sourcePoint" />
            <mxPoint x="410" y="393" as="targetPoint" />
            <mxPoint as="offset" />
          </mxGeometry>
        </mxCell>
        <mxCell id="AzmRYx8aAY5YrTBjNprB-77" value="selectTempCntAll()" style="html=1;verticalAlign=bottom;endArrow=block;" edge="1" parent="1">
          <mxGeometry x="-0.0578" width="80" relative="1" as="geometry">
            <mxPoint x="420" y="393" as="sourcePoint" />
            <mxPoint x="650" y="393" as="targetPoint" />
            <mxPoint as="offset" />
          </mxGeometry>
        </mxCell>
        <mxCell id="AzmRYx8aAY5YrTBjNprB-78" value="int" style="html=1;verticalAlign=bottom;endArrow=block;" edge="1" parent="1">
          <mxGeometry x="0.0435" width="80" relative="1" as="geometry">
            <mxPoint x="648" y="413" as="sourcePoint" />
            <mxPoint x="418" y="413" as="targetPoint" />
            <mxPoint as="offset" />
          </mxGeometry>
        </mxCell>
        <mxCell id="AzmRYx8aAY5YrTBjNprB-79" value="" style="html=1;points=[];perimeter=orthogonalPerimeter;" vertex="1" parent="1">
          <mxGeometry x="649" y="438" width="10" height="40" as="geometry" />
        </mxCell>
        <mxCell id="AzmRYx8aAY5YrTBjNprB-80" value="selectTempSearch(search, paging)" style="html=1;verticalAlign=bottom;endArrow=block;" edge="1" parent="1">
          <mxGeometry x="-0.0578" width="80" relative="1" as="geometry">
            <mxPoint x="420" y="448" as="sourcePoint" />
            <mxPoint x="650" y="448" as="targetPoint" />
            <mxPoint as="offset" />
          </mxGeometry>
        </mxCell>
        <mxCell id="AzmRYx8aAY5YrTBjNprB-81" value="List&amp;lt;Document&amp;gt;" style="html=1;verticalAlign=bottom;endArrow=block;" edge="1" parent="1">
          <mxGeometry x="0.0261" width="80" relative="1" as="geometry">
            <mxPoint x="649" y="467" as="sourcePoint" />
            <mxPoint x="419" y="467" as="targetPoint" />
            <mxPoint as="offset" />
          </mxGeometry>
        </mxCell>
        <mxCell id="AzmRYx8aAY5YrTBjNprB-82" value="List&amp;lt;Document&amp;gt;" style="html=1;verticalAlign=bottom;endArrow=block;" edge="1" parent="1">
          <mxGeometry x="0.0261" width="80" relative="1" as="geometry">
            <mxPoint x="409" y="468" as="sourcePoint" />
            <mxPoint x="179" y="468" as="targetPoint" />
            <mxPoint as="offset" />
          </mxGeometry>
        </mxCell>
        <mxCell id="AzmRYx8aAY5YrTBjNprB-83" value="" style="html=1;points=[];perimeter=orthogonalPerimeter;" vertex="1" parent="1">
          <mxGeometry x="169" y="488" width="10" height="97" as="geometry" />
        </mxCell>
        <mxCell id="AzmRYx8aAY5YrTBjNprB-84" value="" style="html=1;points=[];perimeter=orthogonalPerimeter;" vertex="1" parent="1">
          <mxGeometry x="409" y="490" width="10" height="95" as="geometry" />
        </mxCell>
        <mxCell id="AzmRYx8aAY5YrTBjNprB-85" value="" style="html=1;points=[];perimeter=orthogonalPerimeter;" vertex="1" parent="1">
          <mxGeometry x="649" y="490" width="10" height="40" as="geometry" />
        </mxCell>
        <mxCell id="AzmRYx8aAY5YrTBjNprB-86" value="getTempPaging(req)" style="html=1;verticalAlign=bottom;endArrow=block;" edge="1" parent="1">
          <mxGeometry x="-0.0578" width="80" relative="1" as="geometry">
            <mxPoint x="180" y="500" as="sourcePoint" />
            <mxPoint x="410" y="500" as="targetPoint" />
            <mxPoint as="offset" />
          </mxGeometry>
        </mxCell>
        <mxCell id="AzmRYx8aAY5YrTBjNprB-87" value="selectTempCntAll()" style="html=1;verticalAlign=bottom;endArrow=block;" edge="1" parent="1">
          <mxGeometry x="-0.0578" width="80" relative="1" as="geometry">
            <mxPoint x="420" y="500" as="sourcePoint" />
            <mxPoint x="650" y="500" as="targetPoint" />
            <mxPoint as="offset" />
          </mxGeometry>
        </mxCell>
        <mxCell id="AzmRYx8aAY5YrTBjNprB-88" value="int" style="html=1;verticalAlign=bottom;endArrow=block;" edge="1" parent="1">
          <mxGeometry x="0.0435" width="80" relative="1" as="geometry">
            <mxPoint x="648" y="520" as="sourcePoint" />
            <mxPoint x="418" y="520" as="targetPoint" />
            <mxPoint as="offset" />
          </mxGeometry>
        </mxCell>
        <mxCell id="AzmRYx8aAY5YrTBjNprB-89" value="" style="html=1;points=[];perimeter=orthogonalPerimeter;" vertex="1" parent="1">
          <mxGeometry x="649" y="545" width="10" height="40" as="geometry" />
        </mxCell>
        <mxCell id="AzmRYx8aAY5YrTBjNprB-90" value="selectTempAll(paging)" style="html=1;verticalAlign=bottom;endArrow=block;" edge="1" parent="1">
          <mxGeometry x="-0.0578" width="80" relative="1" as="geometry">
            <mxPoint x="420" y="555" as="sourcePoint" />
            <mxPoint x="650" y="555" as="targetPoint" />
            <mxPoint as="offset" />
          </mxGeometry>
        </mxCell>
        <mxCell id="AzmRYx8aAY5YrTBjNprB-91" value="List&amp;lt;Document&amp;gt;" style="html=1;verticalAlign=bottom;endArrow=block;" edge="1" parent="1">
          <mxGeometry x="0.0261" width="80" relative="1" as="geometry">
            <mxPoint x="649" y="574" as="sourcePoint" />
            <mxPoint x="419" y="574" as="targetPoint" />
            <mxPoint as="offset" />
          </mxGeometry>
        </mxCell>
        <mxCell id="AzmRYx8aAY5YrTBjNprB-92" value="List&amp;lt;Document&amp;gt;" style="html=1;verticalAlign=bottom;endArrow=block;" edge="1" parent="1">
          <mxGeometry x="0.0261" width="80" relative="1" as="geometry">
            <mxPoint x="409" y="575" as="sourcePoint" />
            <mxPoint x="179" y="575" as="targetPoint" />
            <mxPoint as="offset" />
          </mxGeometry>
        </mxCell>
      </root>
    </mxGraphModel>
  </diagram>
</mxfile>
